<svg width="108" height="31" viewBox="0 0 108 31" fill="none" xmlns="http://www.w3.org/2000/svg">
<path d="M45.04 28.21C43.66 28.21 42.7 27.8 42.16 26.98C41.62 26.14 41.51 25.05 41.83 23.71L45.91 6.10001H48.31L44.2 23.8C44 24.62 44.06 25.21 44.38 25.57C44.7 25.93 45.25 26.11 46.03 26.11C46.33 26.11 46.59 26.1 46.81 26.08C47.03 26.06 47.24 26.03 47.44 25.99L46.84 27.91C46.52 28.03 46.23 28.11 45.97 28.15C45.71 28.19 45.4 28.21 45.04 28.21Z" fill="black"/>
<path d="M55.622 10.12C55.142 10.12 54.752 9.98001 54.452 9.70001C54.152 9.40001 54.002 9.02001 54.002 8.56001C54.002 7.94001 54.182 7.45001 54.542 7.09001C54.922 6.71001 55.372 6.52001 55.892 6.52001C56.372 6.52001 56.762 6.67001 57.062 6.97001C57.362 7.25001 57.512 7.62001 57.512 8.08001C57.512 8.70001 57.322 9.20001 56.942 9.58001C56.582 9.94001 56.142 10.12 55.622 10.12ZM55.892 13L52.412 28H50.012L53.492 13H55.892Z" fill="black"/>
<path d="M73.8564 13L66.0264 19.51L65.5164 19.84L59.6964 24.7L60.1464 21.64L70.4964 13H73.8564ZM65.2164 6.10001L60.1464 28H57.7464L62.8164 6.10001H65.2164ZM66.4764 18.25L70.7364 28H68.1264L64.5264 19.54L66.4764 18.25Z" fill="black"/>
<path d="M74.094 28L79.164 6.10001H81.564L79.284 16L78.804 16.21C79.084 15.43 79.504 14.78 80.064 14.26C80.644 13.74 81.304 13.35 82.044 13.09C82.804 12.83 83.594 12.7 84.414 12.7C85.534 12.7 86.494 12.95 87.294 13.45C88.114 13.95 88.694 14.67 89.034 15.61C89.374 16.53 89.394 17.65 89.094 18.97L86.994 28H84.594L86.694 18.94C86.994 17.64 86.864 16.63 86.304 15.91C85.764 15.17 84.904 14.8 83.724 14.8C82.804 14.8 81.984 15.01 81.264 15.43C80.564 15.83 79.964 16.42 79.464 17.2C78.984 17.98 78.604 18.95 78.324 20.11L76.494 28H74.094Z" fill="black"/>
<path d="M99.4658 28.27C98.0258 28.27 96.7958 27.97 95.7758 27.37C94.7758 26.75 94.0058 25.93 93.4658 24.91C92.9458 23.87 92.6858 22.74 92.6858 21.52C92.6858 19.8 93.0158 18.28 93.6758 16.96C94.3358 15.64 95.2458 14.61 96.4058 13.87C97.5658 13.11 98.9058 12.73 100.426 12.73C101.886 12.73 103.116 13.04 104.116 13.66C105.116 14.26 105.876 15.07 106.396 16.09C106.916 17.09 107.176 18.21 107.176 19.45C107.176 21.15 106.846 22.67 106.186 24.01C105.546 25.33 104.646 26.37 103.486 27.13C102.326 27.89 100.986 28.27 99.4658 28.27ZM99.5558 26.2C100.276 26.2 100.946 26.05 101.566 25.75C102.206 25.43 102.766 24.98 103.246 24.4C103.726 23.8 104.096 23.09 104.356 22.27C104.616 21.45 104.746 20.54 104.746 19.54C104.746 18.66 104.586 17.87 104.266 17.17C103.966 16.45 103.486 15.88 102.826 15.46C102.186 15.02 101.356 14.8 100.336 14.8C99.6158 14.8 98.9358 14.96 98.2958 15.28C97.6558 15.58 97.0958 16.02 96.6158 16.6C96.1558 17.18 95.7858 17.88 95.5058 18.7C95.2458 19.52 95.1158 20.43 95.1158 21.43C95.1158 22.29 95.2758 23.09 95.5958 23.83C95.9158 24.55 96.4058 25.13 97.0658 25.57C97.7258 25.99 98.5558 26.2 99.5558 26.2Z" fill="black"/>
<circle cx="15.5" cy="15.5" r="15.5" fill="#323131"/>
<path d="M15.0277 26.5801C14.6443 26.681 14.3314 26.6003 14.0893 26.3379C13.8673 26.0755 13.7361 25.6719 13.6957 25.127C13.6553 24.582 13.7159 23.9362 13.8773 23.1895C13.9783 22.9473 14.059 22.7152 14.1195 22.4932C14.1801 22.251 14.2104 22.0592 14.2104 21.918C14.2507 21.7161 14.3314 21.4235 14.4525 21.04C14.5736 20.6364 14.7048 20.2227 14.8461 19.7988C14.9874 19.375 15.1186 19.0016 15.2396 18.6787C15.3809 18.3356 15.4717 18.1237 15.5121 18.043C15.5928 18.043 15.6635 17.9723 15.724 17.8311C15.7846 17.6898 15.8148 17.5485 15.8148 17.4072C15.8148 17.2458 15.8451 17.0641 15.9057 16.8623C15.9864 16.6605 16.0671 16.5192 16.1479 16.4385C16.1479 16.3376 16.168 16.2266 16.2084 16.1055C16.2689 15.9642 16.2992 15.8532 16.2992 15.7725C16.2992 15.6917 16.3194 15.611 16.3598 15.5303C16.4203 15.4495 16.4506 15.3688 16.4506 15.2881C16.5919 15.0257 16.7735 14.612 16.9955 14.0469C17.2377 13.4616 17.49 12.8158 17.7523 12.1094C18.0349 11.403 18.2973 10.7067 18.5395 10.0205C18.7816 9.33431 18.9734 8.75911 19.1146 8.29492C19.2761 7.81055 19.3568 7.5179 19.3568 7.41699C19.3568 7.25553 19.3972 7.13444 19.4779 7.05371C19.5587 6.97298 19.6798 6.93262 19.8412 6.93262C19.9018 6.87207 19.9724 6.83171 20.0531 6.81152C20.154 6.79134 20.2449 6.78125 20.3256 6.78125C20.3256 6.78125 20.3659 6.82161 20.4467 6.90234C20.5274 6.98307 20.6485 7.10417 20.81 7.26563C20.9714 7.4069 21.0622 7.56836 21.0824 7.75C21.1228 7.93164 21.143 8.14356 21.143 8.38574C21.143 8.64811 21.1127 8.88021 21.0521 9.08203C20.9916 9.28385 20.8705 9.5765 20.6889 9.95996C20.5072 10.3434 20.2247 10.9388 19.8412 11.7461C19.6798 12.1497 19.5082 12.5332 19.3266 12.8965C19.1449 13.2396 19.0541 13.4515 19.0541 13.5322C19.0541 13.613 19.0137 13.7341 18.933 13.8955C18.8725 14.057 18.8018 14.2588 18.7211 14.501C18.6404 14.6624 18.5294 14.9046 18.3881 15.2275C18.2468 15.5303 18.0954 15.8633 17.934 16.2266C17.7927 16.5697 17.6716 16.8724 17.5707 17.1348C17.4698 17.377 17.4193 17.5182 17.4193 17.5586C17.4193 17.6393 17.4092 17.7201 17.3891 17.8008C17.3891 17.8815 17.3487 17.9622 17.268 18.043C17.1872 18.043 17.1368 18.1035 17.1166 18.2246C17.1166 18.3255 17.1166 18.376 17.1166 18.376C17.1166 18.5778 16.9551 19.1126 16.6322 19.9805C16.3093 21.0905 16.0066 22.1097 15.724 23.0381C15.4617 23.9665 15.3305 24.7132 15.3305 25.2783C15.3305 25.7627 15.3204 26.0856 15.3002 26.2471C15.28 26.3883 15.1892 26.4993 15.0277 26.5801Z" fill="white"/>
<path d="M19.5671 25.6113C19.4056 25.4499 19.2845 25.248 19.2038 25.0059C19.1433 24.7637 19.1231 24.5215 19.1433 24.2793C19.1634 24.0371 19.2139 23.8353 19.2946 23.6738C19.2946 23.5124 19.3148 23.3913 19.3552 23.3105C19.4157 23.2096 19.4359 23.1188 19.4157 23.0381C19.3955 22.9574 19.4157 22.8161 19.4763 22.6143C19.5368 22.4124 19.5974 22.2207 19.6579 22.0391C19.7992 21.7161 19.9506 21.3327 20.112 20.8887C20.2735 20.4245 20.4248 19.9704 20.5661 19.5264C20.7074 19.0824 20.8285 18.6989 20.9294 18.376C21.0303 18.0531 21.0909 17.8512 21.111 17.7705C21.111 17.5283 21.2725 17.3971 21.5954 17.377C21.8376 17.2962 22.0192 17.2962 22.1403 17.377C22.2614 17.4375 22.4229 17.6292 22.6247 17.9521C22.7862 18.1136 22.8467 18.3558 22.8064 18.6787C22.766 19.0016 22.6348 19.4053 22.4128 19.8896C22.3321 20.0511 22.2312 20.2832 22.1101 20.5859C22.0092 20.8887 21.9385 21.1611 21.8981 21.4033C21.8174 21.5648 21.7165 21.7969 21.5954 22.0996C21.4945 22.3822 21.4037 22.6546 21.323 22.917C21.2826 23.0179 21.2422 23.1693 21.2019 23.3711C21.1615 23.5527 21.111 23.7546 21.0505 23.9766C20.9899 24.1784 20.9092 24.36 20.8083 24.5215C20.6267 25.349 20.4551 25.8333 20.2937 25.9746C20.1524 26.1159 19.9102 25.9948 19.5671 25.6113ZM22.5036 13.3203C22.4027 13.2194 22.3119 13.0781 22.2312 12.8965C22.1504 12.6947 22.1 12.513 22.0798 12.3516C22.0596 12.1699 22.0798 12.0791 22.1403 12.0791C22.3018 12.0589 22.4935 11.8874 22.7155 11.5645C22.9375 11.2415 23.0284 10.959 22.988 10.7168C22.988 10.6361 23.0183 10.5654 23.0788 10.5049C23.1394 10.4242 23.21 10.3737 23.2907 10.3535C23.5329 10.1921 23.765 10.1719 23.987 10.293C24.2292 10.3939 24.4512 10.6058 24.653 10.9287C24.8347 11.3122 24.8851 11.6351 24.8044 11.8975C24.7237 12.1396 24.5017 12.4827 24.1384 12.9268C23.8356 13.3304 23.5531 13.5524 23.2907 13.5928C23.0485 13.6331 22.7862 13.5423 22.5036 13.3203Z" fill="white"/>
</svg>
