<svg width="380" height="72" viewBox="0 0 380 72" fill="none" xmlns="http://www.w3.org/2000/svg">
<path d="M92.2841 71V1.18181H109.159V57.2954H138.205V71H92.2841Z" fill="black"/>
<path d="M163.815 1.18181V71H146.94V1.18181H163.815Z" fill="black"/>
<path d="M174.409 71V1.18181H191.284V30.7045H192.205L215.284 1.18181H235.159L210.409 32.3409L235.602 71H215.42L198.034 43.5568L191.284 52.0795V71H174.409Z" fill="black"/>
<path d="M241.815 71V1.18181H258.69V29.2045H286.202V1.18181H303.043V71H286.202V42.9432H258.69V71H241.815Z" fill="black"/>
<path d="M379.526 36.0909C379.526 43.7727 378.048 50.2841 375.094 55.625C372.139 60.9659 368.139 65.0227 363.094 67.7954C358.071 70.5682 352.435 71.9545 346.185 71.9545C339.912 71.9545 334.264 70.5568 329.241 67.7614C324.219 64.9659 320.23 60.9091 317.276 55.5909C314.344 50.25 312.878 43.75 312.878 36.0909C312.878 28.4091 314.344 21.8977 317.276 16.5568C320.23 11.2159 324.219 7.15908 329.241 4.38636C334.264 1.61363 339.912 0.227264 346.185 0.227264C352.435 0.227264 358.071 1.61363 363.094 4.38636C368.139 7.15908 372.139 11.2159 375.094 16.5568C378.048 21.8977 379.526 28.4091 379.526 36.0909ZM362.276 36.0909C362.276 31.5455 361.628 27.7045 360.332 24.5682C359.06 21.4318 357.219 19.0568 354.81 17.4432C352.423 15.8295 349.548 15.0227 346.185 15.0227C342.844 15.0227 339.969 15.8295 337.56 17.4432C335.151 19.0568 333.298 21.4318 332.003 24.5682C330.73 27.7045 330.094 31.5455 330.094 36.0909C330.094 40.6364 330.73 44.4773 332.003 47.6136C333.298 50.75 335.151 53.125 337.56 54.7386C339.969 56.3523 342.844 57.1591 346.185 57.1591C349.548 57.1591 352.423 56.3523 354.81 54.7386C357.219 53.125 359.06 50.75 360.332 47.6136C361.628 44.4773 362.276 40.6364 362.276 36.0909Z" fill="black"/>
<rect y="1" width="74" height="70" fill="black"/>
<path d="M40.0116 70.9068C39.1524 71.1305 38.4515 70.9515 37.9089 70.3697C37.4115 69.7878 37.1176 68.8927 37.0271 67.6842C36.9367 66.4758 37.0724 65.0436 37.4341 63.3876C37.6602 62.8505 37.8411 62.3358 37.9767 61.8434C38.1124 61.3063 38.1802 60.8812 38.1802 60.5679C38.2707 60.1203 38.4515 59.4713 38.7228 58.6209C38.9942 57.7258 39.2881 56.8083 39.6046 55.8684C39.9212 54.9285 40.2151 54.1004 40.4864 53.3843C40.8029 52.6235 41.0064 52.1535 41.0968 51.9745C41.2777 51.9745 41.436 51.8178 41.5716 51.5045C41.7073 51.1912 41.7751 50.8779 41.7751 50.5646C41.7751 50.2066 41.843 49.8038 41.9786 49.3562C42.1595 48.9086 42.3404 48.5953 42.5212 48.4163C42.5212 48.1925 42.5665 47.9463 42.6569 47.6778C42.7926 47.3645 42.8604 47.1183 42.8604 46.9393C42.8604 46.7603 42.9056 46.5812 42.996 46.4022C43.1317 46.2232 43.1995 46.0442 43.1995 45.8651C43.5161 45.2833 43.923 44.3658 44.4205 43.1126C44.9631 41.8146 45.5283 40.3824 46.1162 38.8159C46.7492 37.2494 47.3371 35.7053 47.8797 34.1835C48.4223 32.6618 48.8519 31.3862 49.1685 30.3568C49.5302 29.2826 49.7111 28.6336 49.7111 28.4098C49.7111 28.0518 49.8015 27.7833 49.9824 27.6042C50.1633 27.4252 50.4346 27.3357 50.7963 27.3357C50.932 27.2014 51.0903 27.1119 51.2711 27.0671C51.4972 27.0224 51.7007 27 51.8816 27C51.8816 27 51.972 27.0895 52.1529 27.2685C52.3338 27.4476 52.6051 27.7161 52.9669 28.0742C53.3286 28.3875 53.5321 28.7455 53.5773 29.1483C53.6677 29.5512 53.713 30.0211 53.713 30.5582C53.713 31.14 53.6451 31.6547 53.5095 32.1023C53.3738 32.5499 53.1025 33.1989 52.6955 34.0492C52.2886 34.8996 51.6555 36.22 50.7963 38.0103C50.4346 38.9054 50.0502 39.7558 49.6433 40.5614C49.2363 41.3223 49.0328 41.7922 49.0328 41.9713C49.0328 42.1503 48.9424 42.4188 48.7615 42.7769C48.6258 43.135 48.4676 43.5825 48.2867 44.1196C48.1058 44.4777 47.8571 45.0147 47.5406 45.7309C47.224 46.4022 46.8849 47.1407 46.5231 47.9463C46.2066 48.7072 45.9353 49.3786 45.7092 49.9604C45.4831 50.4975 45.37 50.8108 45.37 50.9003C45.37 51.0793 45.3474 51.2584 45.3022 51.4374C45.3022 51.6164 45.2118 51.7955 45.0309 51.9745C44.85 51.9745 44.737 52.1088 44.6918 52.3773C44.6918 52.6011 44.6918 52.713 44.6918 52.713C44.6918 53.1605 44.33 54.3466 43.6065 56.2712C42.883 58.7328 42.2047 60.993 41.5716 63.0519C40.9838 65.1107 40.6899 66.7667 40.6899 68.0199C40.6899 69.0941 40.6673 69.8102 40.622 70.1683C40.5768 70.4816 40.3733 70.7277 40.0116 70.9068Z" fill="white"/>
<path d="M50.1822 68.7584C49.8204 68.4004 49.5491 67.9528 49.3682 67.4157C49.2326 66.8786 49.1874 66.3415 49.2326 65.8044C49.2778 65.2674 49.3908 64.8198 49.5717 64.4617C49.5717 64.1037 49.6169 63.8351 49.7074 63.6561C49.843 63.4323 49.8882 63.2309 49.843 63.0519C49.7978 62.8728 49.843 62.5595 49.9787 62.112C50.1143 61.6644 50.25 61.2392 50.3857 60.8364C50.7022 60.1203 51.0413 59.2699 51.4031 58.2852C51.7648 57.2558 52.104 56.2488 52.4205 55.2641C52.737 54.2795 53.0084 53.4291 53.2345 52.713C53.4606 51.9969 53.5962 51.5493 53.6414 51.3703C53.6414 50.8332 54.0032 50.5423 54.7267 50.4975C55.2693 50.3185 55.6763 50.3185 55.9476 50.4975C56.2189 50.6318 56.5807 51.057 57.0329 51.7731C57.3946 52.1311 57.5303 52.6682 57.4398 53.3843C57.3494 54.1004 57.0555 54.9956 56.5581 56.0698C56.3772 56.4278 56.1511 56.9425 55.8798 57.6139C55.6537 58.2852 55.4954 58.8895 55.405 59.4265C55.2241 59.7846 54.998 60.2993 54.7267 60.9707C54.5006 61.5973 54.2971 62.2015 54.1162 62.7833C54.0258 63.0071 53.9354 63.3428 53.8449 63.7904C53.7545 64.1932 53.6414 64.6408 53.5058 65.1331C53.3701 65.5807 53.1892 65.9835 52.9631 66.3415C52.5562 68.1766 52.1718 69.2507 51.8101 69.564C51.4935 69.8773 50.9509 69.6088 50.1822 68.7584ZM56.7615 41.5013C56.5355 41.2775 56.332 40.9642 56.1511 40.5614C55.9702 40.1138 55.8572 39.711 55.8119 39.353C55.7667 38.9502 55.8119 38.7487 55.9476 38.7487C56.3094 38.704 56.7389 38.3236 57.2363 37.6074C57.7338 36.8913 57.9372 36.2647 57.8468 35.7276C57.8468 35.5486 57.9146 35.392 58.0503 35.2577C58.1859 35.0787 58.3442 34.9668 58.5251 34.922C59.0677 34.564 59.5877 34.5192 60.0851 34.7877C60.6278 35.0115 61.1252 35.4815 61.5774 36.1976C61.9843 37.048 62.0974 37.7641 61.9165 38.3459C61.7356 38.883 61.2382 39.6439 60.4243 40.6285C59.746 41.5237 59.1129 42.016 58.5251 42.1055C57.9825 42.1951 57.3946 41.9936 56.7615 41.5013Z" fill="white"/>
</svg>
