<svg width="140" height="50" viewBox="0 0 140 50" fill="none" xmlns="http://www.w3.org/2000/svg">
<rect x="37" y="49" width="0.999999" height="12" transform="rotate(-90 37 49)" fill="#7E7E7E"/>
<rect x="48" y="37" width="1" height="11" fill="#7E7E7E"/>
<rect x="12" width="0.999999" height="12" transform="rotate(90 12 0)" fill="#7E7E7E"/>
<rect x="1" y="12" width="1" height="11" transform="rotate(-180 1 12)" fill="#7E7E7E"/>
<path d="M14.0116 46.9068C13.1524 47.1305 12.4515 46.9515 11.9089 46.3697C11.4115 45.7878 11.1176 44.8927 11.0271 43.6842C10.9367 42.4758 11.0724 41.0436 11.4341 39.3876C11.6602 38.8505 11.8411 38.3358 11.9767 37.8434C12.1124 37.3064 12.1802 36.8812 12.1802 36.5679C12.2707 36.1203 12.4515 35.4713 12.7228 34.6209C12.9942 33.7258 13.2881 32.8083 13.6046 31.8684C13.9212 30.9285 14.2151 30.1005 14.4864 29.3843C14.8029 28.6235 15.0064 28.1535 15.0968 27.9745C15.2777 27.9745 15.436 27.8178 15.5716 27.5045C15.7073 27.1912 15.7751 26.8779 15.7751 26.5646C15.7751 26.2066 15.843 25.8038 15.9786 25.3562C16.1595 24.9086 16.3404 24.5953 16.5212 24.4163C16.5212 24.1925 16.5665 23.9463 16.6569 23.6778C16.7926 23.3645 16.8604 23.1183 16.8604 22.9393C16.8604 22.7603 16.9056 22.5813 16.996 22.4022C17.1317 22.2232 17.1995 22.0442 17.1995 21.8651C17.5161 21.2833 17.923 20.3658 18.4205 19.1126C18.9631 17.8146 19.5283 16.3824 20.1162 14.8159C20.7492 13.2494 21.3371 11.7053 21.8797 10.1835C22.4223 8.66178 22.8519 7.3862 23.1685 6.35679C23.5302 5.28261 23.7111 4.63364 23.7111 4.40985C23.7111 4.05179 23.8015 3.78325 23.9824 3.60422C24.1633 3.42519 24.4346 3.33568 24.7963 3.33568C24.932 3.20141 25.0903 3.11189 25.2711 3.06713C25.4972 3.02238 25.7007 3 25.8816 3C25.8816 3 25.972 3.08951 26.1529 3.26854C26.3338 3.44757 26.6051 3.71612 26.9669 4.07417C27.3286 4.38747 27.5321 4.74553 27.5773 5.14834C27.6677 5.55116 27.713 6.02111 27.713 6.55819C27.713 7.14004 27.6451 7.65475 27.5095 8.10232C27.3738 8.54989 27.1025 9.19886 26.6955 10.0493C26.2886 10.8996 25.6555 12.22 24.7963 14.0103C24.4346 14.9054 24.0502 15.7558 23.6433 16.5614C23.2363 17.3223 23.0328 17.7922 23.0328 17.9713C23.0328 18.1503 22.9424 18.4188 22.7615 18.7769C22.6258 19.135 22.4676 19.5825 22.2867 20.1196C22.1058 20.4777 21.8571 21.0148 21.5406 21.7309C21.224 22.4022 20.8849 23.1407 20.5231 23.9463C20.2066 24.7072 19.9353 25.3786 19.7092 25.9604C19.4831 26.4975 19.37 26.8108 19.37 26.9003C19.37 27.0793 19.3474 27.2584 19.3022 27.4374C19.3022 27.6164 19.2118 27.7955 19.0309 27.9745C18.85 27.9745 18.737 28.1088 18.6918 28.3773C18.6918 28.6011 18.6918 28.713 18.6918 28.713C18.6918 29.1606 18.33 30.3466 17.6065 32.2712C16.883 34.7328 16.2047 36.9931 15.5716 39.0519C14.9838 41.1107 14.6899 42.7667 14.6899 44.0199C14.6899 45.0941 14.6673 45.8102 14.622 46.1683C14.5768 46.4816 14.3733 46.7277 14.0116 46.9068Z" fill="#F86024"/>
<path d="M24.1822 44.7584C23.8204 44.4004 23.5491 43.9528 23.3682 43.4157C23.2326 42.8786 23.1874 42.3415 23.2326 41.8044C23.2778 41.2674 23.3908 40.8198 23.5717 40.4617C23.5717 40.1037 23.6169 39.8351 23.7074 39.6561C23.843 39.4323 23.8882 39.2309 23.843 39.0519C23.7978 38.8729 23.843 38.5595 23.9787 38.112C24.1143 37.6644 24.25 37.2392 24.3857 36.8364C24.7022 36.1203 25.0413 35.2699 25.4031 34.2852C25.7648 33.2558 26.104 32.2488 26.4205 31.2641C26.737 30.2795 27.0084 29.4291 27.2345 28.713C27.4606 27.9969 27.5962 27.5493 27.6414 27.3703C27.6414 26.8332 28.0032 26.5423 28.7267 26.4975C29.2693 26.3185 29.6763 26.3185 29.9476 26.4975C30.2189 26.6318 30.5807 27.057 31.0329 27.7731C31.3946 28.1311 31.5303 28.6682 31.4398 29.3843C31.3494 30.1005 31.0555 30.9956 30.5581 32.0698C30.3772 32.4278 30.1511 32.9425 29.8798 33.6139C29.6537 34.2852 29.4954 34.8895 29.405 35.4266C29.2241 35.7846 28.998 36.2993 28.7267 36.9707C28.5006 37.5973 28.2971 38.2015 28.1162 38.7833C28.0258 39.0071 27.9354 39.3428 27.8449 39.7904C27.7545 40.1932 27.6414 40.6408 27.5058 41.1331C27.3701 41.5807 27.1892 41.9835 26.9631 42.3415C26.5562 44.1766 26.1718 45.2507 25.8101 45.564C25.4935 45.8773 24.9509 45.6088 24.1822 44.7584ZM30.7615 17.5013C30.5355 17.2775 30.332 16.9642 30.1511 16.5614C29.9702 16.1138 29.8572 15.711 29.8119 15.353C29.7667 14.9502 29.8119 14.7488 29.9476 14.7488C30.3094 14.704 30.7389 14.3236 31.2363 13.6074C31.7338 12.8913 31.9372 12.2647 31.8468 11.7276C31.8468 11.5486 31.9146 11.392 32.0503 11.2577C32.1859 11.0787 32.3442 10.9668 32.5251 10.922C33.0677 10.564 33.5877 10.5192 34.0851 10.7877C34.6278 11.0115 35.1252 11.4815 35.5774 12.1976C35.9843 13.048 36.0974 13.7641 35.9165 14.3459C35.7356 14.883 35.2382 15.6439 34.4243 16.6286C33.746 17.5237 33.1129 18.016 32.5251 18.1055C31.9825 18.1951 31.3946 17.9936 30.7615 17.5013Z" fill="#F86024"/>
<path d="M14.0116 46.9068C13.1524 47.1305 12.4515 46.9515 11.9089 46.3697C11.4115 45.7878 11.1176 44.8927 11.0271 43.6842C10.9367 42.4758 11.0724 41.0436 11.4341 39.3876C11.6602 38.8505 11.8411 38.3358 11.9767 37.8434C12.1124 37.3064 12.1802 36.8812 12.1802 36.5679C12.2707 36.1203 12.4515 35.4713 12.7228 34.6209C12.9942 33.7258 13.2881 32.8083 13.6046 31.8684C13.9212 30.9285 14.2151 30.1005 14.4864 29.3843C14.8029 28.6235 15.0064 28.1535 15.0968 27.9745C15.2777 27.9745 15.436 27.8178 15.5716 27.5045C15.7073 27.1912 15.7751 26.8779 15.7751 26.5646C15.7751 26.2066 15.843 25.8038 15.9786 25.3562C16.1595 24.9086 16.3404 24.5953 16.5212 24.4163C16.5212 24.1925 16.5665 23.9463 16.6569 23.6778C16.7926 23.3645 16.8604 23.1183 16.8604 22.9393C16.8604 22.7603 16.9056 22.5813 16.996 22.4022C17.1317 22.2232 17.1995 22.0442 17.1995 21.8651C17.5161 21.2833 17.923 20.3658 18.4205 19.1126C18.9631 17.8146 19.5283 16.3824 20.1162 14.8159C20.7492 13.2494 21.3371 11.7053 21.8797 10.1835C22.4223 8.66178 22.8519 7.3862 23.1685 6.35679C23.5302 5.28261 23.7111 4.63364 23.7111 4.40985C23.7111 4.05179 23.8015 3.78325 23.9824 3.60422C24.1633 3.42519 24.4346 3.33568 24.7963 3.33568C24.932 3.20141 25.0903 3.11189 25.2711 3.06713C25.4972 3.02238 25.7007 3 25.8816 3C25.8816 3 25.972 3.08951 26.1529 3.26854C26.3338 3.44757 26.6051 3.71612 26.9669 4.07417C27.3286 4.38747 27.5321 4.74553 27.5773 5.14834C27.6677 5.55116 27.713 6.02111 27.713 6.55819C27.713 7.14004 27.6451 7.65475 27.5095 8.10232C27.3738 8.54989 27.1025 9.19886 26.6955 10.0493C26.2886 10.8996 25.6555 12.22 24.7963 14.0103C24.4346 14.9054 24.0502 15.7558 23.6433 16.5614C23.2363 17.3223 23.0328 17.7922 23.0328 17.9713C23.0328 18.1503 22.9424 18.4188 22.7615 18.7769C22.6258 19.135 22.4676 19.5825 22.2867 20.1196C22.1058 20.4777 21.8571 21.0148 21.5406 21.7309C21.224 22.4022 20.8849 23.1407 20.5231 23.9463C20.2066 24.7072 19.9353 25.3786 19.7092 25.9604C19.4831 26.4975 19.37 26.8108 19.37 26.9003C19.37 27.0793 19.3474 27.2584 19.3022 27.4374C19.3022 27.6164 19.2118 27.7955 19.0309 27.9745C18.85 27.9745 18.737 28.1088 18.6918 28.3773C18.6918 28.6011 18.6918 28.713 18.6918 28.713C18.6918 29.1606 18.33 30.3466 17.6065 32.2712C16.883 34.7328 16.2047 36.9931 15.5716 39.0519C14.9838 41.1107 14.6899 42.7667 14.6899 44.0199C14.6899 45.0941 14.6673 45.8102 14.622 46.1683C14.5768 46.4816 14.3733 46.7277 14.0116 46.9068Z" fill="black"/>
<path d="M24.1822 44.7584C23.8204 44.4004 23.5491 43.9528 23.3682 43.4157C23.2326 42.8786 23.1874 42.3415 23.2326 41.8044C23.2778 41.2674 23.3908 40.8198 23.5717 40.4617C23.5717 40.1037 23.6169 39.8351 23.7074 39.6561C23.843 39.4323 23.8882 39.2309 23.843 39.0519C23.7978 38.8729 23.843 38.5595 23.9787 38.112C24.1143 37.6644 24.25 37.2392 24.3857 36.8364C24.7022 36.1203 25.0413 35.2699 25.4031 34.2852C25.7648 33.2558 26.104 32.2488 26.4205 31.2641C26.737 30.2795 27.0084 29.4291 27.2345 28.713C27.4606 27.9969 27.5962 27.5493 27.6414 27.3703C27.6414 26.8332 28.0032 26.5423 28.7267 26.4975C29.2693 26.3185 29.6763 26.3185 29.9476 26.4975C30.2189 26.6318 30.5807 27.057 31.0329 27.7731C31.3946 28.1311 31.5303 28.6682 31.4398 29.3843C31.3494 30.1005 31.0555 30.9956 30.5581 32.0698C30.3772 32.4278 30.1511 32.9425 29.8798 33.6139C29.6537 34.2852 29.4954 34.8895 29.405 35.4266C29.2241 35.7846 28.998 36.2993 28.7267 36.9707C28.5006 37.5973 28.2971 38.2015 28.1162 38.7833C28.0258 39.0071 27.9354 39.3428 27.8449 39.7904C27.7545 40.1932 27.6414 40.6408 27.5058 41.1331C27.3701 41.5807 27.1892 41.9835 26.9631 42.3415C26.5562 44.1766 26.1718 45.2507 25.8101 45.564C25.4935 45.8773 24.9509 45.6088 24.1822 44.7584Z" fill="black"/>
<path d="M67.7159 22.8182L63.3693 49H58.7415L63.088 22.8182H67.7159Z" fill="black"/>
<path d="M68.1282 49L71.4009 29.3637H76.0287L72.756 49H68.1282ZM74.3924 26.5512C73.6509 26.5512 73.0373 26.304 72.5515 25.8097C72.0657 25.3154 71.8526 24.723 71.9123 24.0327C71.9719 23.3423 72.283 22.75 72.8455 22.2557C73.4165 21.7614 74.0685 21.5142 74.8015 21.5142C75.5429 21.5142 76.1523 21.7614 76.6296 22.2557C77.1154 22.75 77.3285 23.3423 77.2688 24.0327C77.2177 24.723 76.9066 25.3154 76.3356 25.8097C75.7731 26.304 75.1253 26.5512 74.3924 26.5512Z" fill="black"/>
<path d="M82.7436 42.8381L83.6513 37.2514H84.3927L92.7919 29.3637H98.1996L87.9211 39.0284H86.9751L82.7436 42.8381ZM77.5149 49L81.8615 22.8182H86.4893L82.1427 49H77.5149ZM89.8388 49L84.9297 40.0639L88.5987 36.804L95.3743 49H89.8388Z" fill="black"/>
<path d="M104.556 37.4943L102.664 49H98.0238L102.37 22.8182H106.909L105.272 32.7003H105.515C106.137 31.5838 106.985 30.706 108.059 30.0668C109.142 29.4276 110.441 29.108 111.958 29.108C113.305 29.108 114.439 29.3935 115.359 29.9645C116.279 30.5355 116.927 31.3708 117.302 32.4702C117.686 33.5696 117.75 34.9119 117.494 36.4972L115.397 49H110.757L112.725 37.2131C112.939 35.8921 112.764 34.8651 112.201 34.1321C111.647 33.3906 110.77 33.0199 109.568 33.0199C108.741 33.0199 107.978 33.1989 107.279 33.5568C106.581 33.9063 105.993 34.4134 105.515 35.0781C105.046 35.7429 104.727 36.5483 104.556 37.4943Z" fill="black"/>
<path d="M128.706 49.3835C126.771 49.3835 125.16 48.9574 123.873 48.1051C122.595 47.2529 121.696 46.0554 121.176 44.5128C120.656 42.9702 120.562 41.1804 120.895 39.1435C121.227 37.1321 121.892 35.3722 122.889 33.8637C123.895 32.3551 125.16 31.1875 126.686 30.3608C128.22 29.5256 129.937 29.108 131.838 29.108C133.772 29.108 135.379 29.5384 136.657 30.3992C137.936 31.2514 138.835 32.4489 139.355 33.9915C139.883 35.5341 139.981 37.3324 139.649 39.3864C139.325 41.3892 138.656 43.1406 137.642 44.6406C136.636 46.1406 135.37 47.3083 133.845 48.1435C132.319 48.9702 130.606 49.3835 128.706 49.3835ZM129.089 45.6762C130.163 45.6762 131.105 45.3864 131.914 44.8068C132.733 44.2188 133.402 43.4304 133.922 42.4418C134.45 41.4446 134.816 40.3367 135.021 39.1179C135.208 37.9418 135.213 36.8764 135.034 35.9219C134.855 34.9588 134.471 34.196 133.883 33.6335C133.304 33.0625 132.498 32.777 131.467 32.777C130.393 32.777 129.443 33.0753 128.616 33.6719C127.798 34.26 127.129 35.0526 126.609 36.0497C126.089 37.0384 125.731 38.1421 125.535 39.3608C125.339 40.5369 125.331 41.6023 125.51 42.5568C125.689 43.5114 126.072 44.2699 126.66 44.8324C127.248 45.3949 128.058 45.6762 129.089 45.6762Z" fill="black"/>
</svg>
